Coordinates
version=1
nRows=16
nColumns=63
inDegrees=yes

Units are S.I. units (second, meters, Newtons, ...)
If the header above contains a line with 'inDegrees', this indicates whether rotational values are in degrees (yes) or radians (no).

endheader
time	pelvis_tilt	pelvis_list	pelvis_rotation	pelvis_tx	pelvis_ty	pelvis_tz	hip_flexion_r	hip_adduction_r	hip_rotation_r	knee_angle_r	knee_angle_r_beta	ankle_angle_r	subtalar_angle_r	mtp_angle_r	hip_flexion_l	hip_adduction_l	hip_rotation_l	knee_angle_l	knee_angle_l_beta	ankle_angle_l	subtalar_angle_l	mtp_angle_l	L5_S1_Flex_Ext	L5_S1_Lat_Bending	L5_S1_axial_rotation	L4_L5_Flex_Ext	L4_L5_Lat_Bending	L4_L5_axial_rotation	L3_L4_Flex_Ext	L3_L4_Lat_Bending	L3_L4_axial_rotation	L2_L3_Flex_Ext	L2_L3_Lat_Bending	L2_L3_axial_rotation	L1_L2_Flex_Ext	L1_L2_Lat_Bending	L1_L2_axial_rotation	L1_T12_Flex_Ext	L1_T12_Lat_Bending	L1_T12_axial_rotation	Abs_r3	Abs_r2	Abs_r1	Abs_t1	Abs_t2	neck_flexion	neck_bending	neck_rotation	arm_flex_r	arm_add_r	arm_rot_r	elbow_flex_r	pro_sup_r	wrist_flex_r	wrist_dev_r	arm_flex_l	arm_add_l	arm_rot_l	elbow_flex_l	pro_sup_l	wrist_flex_l	wrist_dev_l
0.000000	2.415592	-4.776144	101.179249	0.249329	0.649234	0.926636	12.512315	2.344035	-10.694229	14.038161	0.245012	28.709283	-2.842369	0.000000	12.269413	-0.495564	2.308702	13.196472	0.230322	25.468080	-2.995946	0.000000	0.067897	0.528861	-0.722281	0.126092	0.703386	-0.767423	0.111548	1.285874	-0.767423	0.077600	1.285874	-0.631995	0.063049	1.078454	-0.586853	0.038796	0.819206	-0.541710	0.484982	5.982586	-4.017107	0.000000	0.000000	24.626065	-4.258601	2.366861	12.373098	-21.528576	55.342458	61.649608	78.997072	10.072364	5.118094	18.125639	-20.241208	69.832375	62.644643	34.590911	-2.300623	-6.130094
0.023256	2.627305	-4.498274	101.538730	0.249402	0.649927	0.924689	12.276120	2.562805	-11.547962	14.192122	0.247699	28.627482	-2.779702	0.000000	11.805333	-0.740579	2.412960	13.001520	0.226919	25.286241	-3.341761	0.000000	0.053178	0.546022	-0.775311	0.098758	0.726209	-0.823768	0.087367	1.327597	-0.823768	0.060778	1.327597	-0.678397	0.049381	1.113447	-0.629940	0.030386	0.845788	-0.581483	0.379848	6.176706	-4.312045	0.000000	0.000000	24.210350	-3.836111	2.176804	12.278259	-21.435133	55.435148	61.416802	80.496895	10.357905	5.285219	17.812135	-20.379455	69.170658	62.505696	37.757561	-1.212676	-5.551811
0.046512	2.819694	-4.254562	101.922873	0.249334	0.650448	0.923061	12.030774	2.761690	-12.281736	14.250204	0.248713	28.530322	-2.783558	0.000000	11.427826	-0.966048	2.391482	12.857379	0.224404	25.226934	-3.362644	0.000000	0.041126	0.562580	-0.835847	0.076375	0.748231	-0.888088	0.067566	1.367857	-0.888088	0.047003	1.367857	-0.731366	0.038189	1.147213	-0.679126	0.023499	0.871436	-0.626885	0.293758	6.364016	-4.648731	0.000000	0.000000	23.852657	-3.535470	1.955750	12.150417	-21.367983	55.424794	61.292955	81.757221	10.508498	5.440690	17.509753	-20.480599	68.494494	62.471545	40.139492	-0.437097	-4.950441
0.069767	2.991698	-4.043354	102.320470	0.249149	0.650812	0.921725	11.779058	2.940257	-12.898491	14.223746	0.248251	28.419802	-2.845830	0.000000	11.128364	-1.171231	2.255197	12.757963	0.222668	25.274120	-3.100737	0.000000	0.031541	0.578246	-0.901516	0.058575	0.769067	-0.957860	0.051819	1.405947	-0.957860	0.036049	1.405947	-0.788826	0.029289	1.179159	-0.732481	0.018023	0.895703	-0.676137	0.225297	6.541235	-5.013959	0.000000	0.000000	23.548038	-3.343682	1.708476	11.997553	-21.324520	55.329463	61.263813	82.772650	10.540148	5.582225	17.218551	-20.548527	67.807647	62.526489	41.822497	0.070347	-4.330629
0.093023	3.142256	-3.862995	102.720314	0.248873	0.651037	0.920654	11.523749	3.098075	-13.401169	14.124084	0.246512	28.297921	-2.958413	0.000000	10.898416	-1.355386	2.015029	12.697192	0.221608	25.411763	-2.598183	0.000000	0.024227	0.592730	-0.969942	0.044992	0.788331	-1.030563	0.039802	1.441165	-1.030563	0.027689	1.441165	-0.848699	0.022497	1.208696	-0.788078	0.013843	0.918139	-0.727456	0.173050	6.705084	-5.394526	0.000000	0.000000	23.291545	-3.247752	1.439762	11.827650	-21.302137	55.167224	61.315122	83.537785	10.468857	5.707543	16.938584	-20.587128	67.113884	62.654830	42.892365	0.353888	-3.697020
0.116279	3.270307	-3.711831	103.111197	0.248530	0.651137	0.919821	11.267626	3.234712	-13.792711	13.962559	0.243693	28.166677	-3.113203	0.000000	10.729454	-1.517773	1.681908	12.668980	0.221115	25.623822	-1.897124	0.000000	0.018984	0.605743	-1.038752	0.035255	0.805638	-1.103674	0.031189	1.472803	-1.103674	0.021697	1.472803	-0.908908	0.017629	1.235231	-0.843986	0.010847	0.938296	-0.779064	0.135601	6.852285	-5.777227	0.000000	0.000000	23.078228	-3.234687	1.154386	11.648692	-21.298225	54.956146	61.432631	84.047228	10.310631	5.814360	16.669911	-20.600288	66.416970	62.840868	43.434889	0.457759	-3.054260
0.139535	3.374791	-3.588208	103.481912	0.248145	0.651129	0.919200	11.013469	3.349734	-14.076056	13.750506	0.239992	28.028069	-3.302092	0.000000	10.612947	-1.657653	1.266758	12.667246	0.221085	25.894260	-1.039702	0.000000	0.015615	0.616994	-1.105571	0.028998	0.820602	-1.174669	0.025654	1.500159	-1.174669	0.017846	1.500159	-0.967375	0.014500	1.258174	-0.898277	0.008922	0.955723	-0.829178	0.111535	6.979558	-6.148856	0.000000	0.000000	22.903141	-3.291490	0.857127	11.468661	-21.310179	54.714296	61.602084	84.295579	10.081471	5.900395	16.412587	-20.591896	65.720668	63.068904	43.535859	0.426192	-2.406992
0.162791	3.454645	-3.490471	103.821252	0.247741	0.651028	0.918762	10.764055	3.442710	-14.254147	13.499266	0.235607	27.884094	-3.516978	0.000000	10.540366	-1.774283	0.780508	12.685905	0.221411	26.207038	-0.068060	0.000000	0.013921	0.626193	-1.168026	0.025853	0.832837	-1.241027	0.022871	1.522526	-1.241027	0.015911	1.522526	-1.022023	0.012927	1.276933	-0.949021	0.007955	0.969973	-0.876019	0.099438	7.083624	-6.496209	0.000000	0.000000	22.761335	-3.405167	0.552762	11.295540	-21.335391	54.459743	61.809229	84.277441	9.797383	5.963366	16.166671	-20.565839	65.028745	63.323238	43.281067	0.303420	-1.759862
0.186047	3.508809	-3.416966	104.118010	0.247344	0.650850	0.918481	10.522165	3.513209	-14.329924	13.220175	0.230736	27.736752	-3.749753	0.000000	10.503182	-1.866925	0.234083	12.718875	0.221986	26.546118	0.975660	0.000000	0.013705	0.633051	-1.223741	0.025452	0.841958	-1.300225	0.022516	1.539201	-1.300225	0.015664	1.539201	-1.070774	0.012727	1.290918	-0.994290	0.007831	0.980596	-0.917806	0.097894	7.161203	-6.806082	0.000000	0.000000	22.647862	-3.562723	0.246071	11.137312	-21.371254	54.210555	62.039813	83.987415	9.474369	6.000991	15.932218	-20.526004	64.344965	63.588171	42.756304	0.133674	-1.117514
0.209302	3.536222	-3.366039	104.360977	0.246978	0.650610	0.918329	10.290576	3.560796	-14.306328	12.924571	0.225576	27.588040	-3.992313	0.000000	10.492865	-1.934838	-0.361588	12.760073	0.222705	26.895462	2.049316	0.000000	0.014768	0.637278	-1.270344	0.027426	0.847580	-1.349740	0.024263	1.549478	-1.349740	0.016879	1.549478	-1.111551	0.013714	1.299537	-1.032154	0.008439	0.987144	-0.952758	0.105488	7.209016	-7.065270	0.000000	0.000000	22.557774	-3.751164	-0.058169	11.001959	-21.415161	53.984801	62.279581	83.420104	9.128434	6.010987	15.709287	-20.476280	63.673094	63.848004	42.047361	-0.038813	-0.484593
0.232558	3.535822	-3.336036	104.538947	0.246668	0.650326	0.918281	10.072068	3.585041	-14.186299	12.623793	0.220327	27.439958	-4.236553	0.000000	10.500886	-1.977280	-0.995580	12.803415	0.223462	27.239032	3.110765	0.000000	0.016912	0.638584	-1.305458	0.031408	0.849316	-1.387050	0.027786	1.552652	-1.387050	0.019329	1.552652	-1.142276	0.015705	1.302200	-1.060685	0.009664	0.989166	-0.979094	0.120804	7.223785	-7.260568	0.000000	0.000000	22.486123	-3.957493	-0.355178	10.897465	-21.464505	53.800549	62.514281	82.570108	8.775581	5.991072	15.497933	-20.420554	63.016896	64.087038	41.240029	-0.169809	0.134256
0.255814	3.516756	-3.343471	104.605919	0.246479	0.650004	0.918380	9.907827	3.600552	-13.847994	12.324631	0.215105	27.295265	-4.540203	0.000000	10.545990	-2.015140	-1.804505	12.845625	0.224198	27.584745	4.215812	0.000000	0.019491	0.638059	-1.318418	0.036198	0.848619	-1.400819	0.032022	1.551377	-1.400819	0.022277	1.551377	-1.153616	0.018100	1.301130	-1.071215	0.011137	0.988354	-0.988814	0.139225	7.217853	-7.332646	0.000000	0.000000	22.492759	-4.212030	-0.652887	10.893890	-21.535910	53.808058	62.710507	80.979516	8.413932	5.970768	15.211028	-20.303940	62.194552	64.208008	40.580021	0.041722	1.033906
0.279070	3.445342	-3.361502	104.564159	0.246475	0.649667	0.918481	9.748035	3.579990	-13.388821	12.064915	0.210572	27.132625	-4.899861	0.000000	10.571630	-2.013227	-2.658930	12.892269	0.225013	27.857290	5.214374	0.000000	0.022553	0.630061	-1.311681	0.041884	0.837981	-1.393661	0.037053	1.531930	-1.393661	0.025776	1.531930	-1.147721	0.020943	1.284820	-1.065741	0.012887	0.975964	-0.983761	0.161097	7.127374	-7.295177	0.000000	0.000000	22.451765	-4.367094	-0.929003	10.964780	-21.593535	53.958583	62.851381	78.975860	8.076889	5.835236	14.984063	-20.246766	61.539895	64.321081	39.795671	0.316897	1.835858
0.302326	3.328182	-3.387210	104.394714	0.246626	0.649353	0.918528	9.594102	3.512826	-12.942611	11.855596	0.206919	26.995264	-5.105073	0.000000	10.551683	-1.950213	-3.306149	12.892580	0.225018	27.974491	5.727940	0.000000	0.026364	0.616523	-1.282019	0.048961	0.819975	-1.362146	0.043313	1.499013	-1.362146	0.030131	1.499013	-1.121767	0.024482	1.257213	-1.041641	0.015064	0.954993	-0.961515	0.188315	6.974226	-7.130207	0.000000	0.000000	22.369438	-4.477993	-1.187643	11.085557	-21.656480	54.189266	62.968815	76.781278	7.811268	5.646707	14.769494	-20.223845	60.886442	64.346249	39.571889	0.914433	2.576363
0.325581	3.158281	-3.431090	104.081992	0.246951	0.649071	0.918544	9.468649	3.393126	-12.460038	11.710701	0.204390	26.883935	-5.185469	0.000000	10.503138	-1.829247	-3.873707	12.854015	0.224345	27.985001	5.933362	0.000000	0.031934	0.596936	-1.225947	0.059304	0.793925	-1.302568	0.052464	1.451390	-1.302568	0.036497	1.451390	-1.072703	0.029653	1.217272	-0.996082	0.018247	0.924654	-0.919460	0.228098	6.752659	-6.818347	0.000000	0.000000	22.254065	-4.547367	-1.393569	11.249527	-21.718273	54.466526	63.048913	74.604281	7.682070	5.412899	14.623469	-20.246493	60.397906	64.309557	39.647402	1.615358	2.940419
0.348837	2.957196	-3.504779	103.660666	0.247432	0.648796	0.918565	9.401710	3.247429	-11.864957	11.644969	0.203243	26.772072	-5.314950	0.000000	10.460369	-1.663362	-4.264498	12.796292	0.223337	27.914504	5.754360	0.000000	0.040798	0.573578	-1.146615	0.075766	0.762859	-1.218279	0.067027	1.394598	-1.218279	0.046628	1.394598	-1.003288	0.037885	1.169641	-0.931625	0.023312	0.888473	-0.859962	0.291418	6.488432	-6.377131	0.000000	0.000000	22.150460	-4.585576	-1.554727	11.442906	-21.775467	54.782938	63.100524	72.377832	7.705644	5.296774	14.608464	-20.339628	60.246141	64.280424	39.656795	2.159995	2.922200
